<?xml version="1.0" standalone="no"?>
<!DOCTYPE svg PUBLIC "-//W3C//DTD SVG 20010904//EN"
 "http://www.w3.org/TR/2001/REC-SVG-20010904/DTD/svg10.dtd">
<svg version="1.0" xmlns="http://www.w3.org/2000/svg"
 width="40.000000pt" height="40.000000pt" viewBox="0 0 500.000000 500.000000"
 preserveAspectRatio="xMidYMid meet">

<g transform="translate(0.000000,500.000000) scale(0.100000,-0.100000)"
fill="#000000" stroke="none">
<path d="M2296 4059 c-192 -28 -538 -152 -588 -211 -47 -54 6 -133 86 -131 18
1 122 30 232 66 109 35 231 74 269 85 85 26 113 44 131 87 19 46 3 90 -38 104
-17 6 -31 10 -32 10 -1 -1 -27 -5 -60 -10z"/>
<path d="M2632 4059 c-26 -10 -45 -54 -38 -85 3 -13 17 -36 31 -52 l25 -30
-57 -38 c-32 -21 -94 -67 -138 -102 -118 -95 -183 -123 -410 -178 -184 -44
-319 -116 -420 -226 -97 -104 -161 -229 -190 -366 -63 -296 103 -633 380 -769
45 -23 175 -58 250 -68 l50 -7 -30 -24 c-17 -13 -57 -38 -90 -56 -56 -30 -67
-33 -155 -33 -84 0 -101 3 -145 27 -62 33 -88 60 -157 168 -68 105 -134 167
-221 209 l-67 32 0 369 0 370 -35 39 c-45 49 -82 65 -118 52 -63 -24 -204
-379 -247 -620 -28 -157 -28 -403 0 -565 36 -213 155 -527 217 -576 35 -28 81
-22 126 15 54 45 56 58 57 330 0 277 -2 287 -63 303 -38 10 -58 51 -37 76 24
30 73 19 138 -29 78 -57 135 -155 152 -260 18 -115 46 -195 98 -280 70 -116
152 -178 332 -251 112 -45 209 -131 261 -229 l24 -46 -40 -35 c-22 -20 -64
-54 -93 -76 l-52 -41 -75 32 c-41 17 -86 31 -100 31 -65 0 -118 -63 -99 -117
18 -50 226 -144 434 -196 123 -31 129 -31 370 -32 221 0 255 2 350 23 193 44
444 148 477 199 14 22 14 27 -2 63 -17 38 -17 39 6 72 68 98 142 178 182 197
86 42 157 17 157 -55 0 -35 -37 -74 -70 -74 -26 0 -67 -36 -74 -65 -8 -30 15
-80 43 -95 30 -16 102 -12 146 9 46 20 101 79 121 127 19 46 18 168 -2 209
-54 114 -192 175 -322 141 -111 -28 -194 -95 -282 -227 -102 -151 -240 -259
-389 -303 -53 -16 -111 -21 -111 -11 0 14 124 170 194 245 45 47 101 109 126
136 25 28 118 129 207 225 88 96 238 264 332 374 95 110 176 201 181 203 5 2
10 -106 12 -263 l3 -266 42 -40 c94 -88 154 -34 249 221 89 242 120 426 111
677 -9 253 -65 475 -182 721 -43 89 -59 114 -81 123 -23 8 -32 6 -53 -11 -15
-11 -39 -28 -55 -38 -164 -98 -292 -207 -380 -326 -30 -39 -62 -80 -72 -91
-11 -11 -50 -60 -89 -110 -156 -202 -552 -616 -804 -839 -126 -112 -279 -217
-355 -243 -33 -12 -79 -18 -131 -17 -101 0 -158 26 -235 104 -53 54 -99 124
-89 134 3 3 32 -2 64 -11 43 -11 85 -14 150 -10 178 11 314 83 505 267 58 56
118 103 155 122 199 102 322 230 470 487 27 47 87 130 133 185 150 179 271
281 452 381 209 115 263 181 263 320 1 89 -13 126 -67 183 -88 94 -237 97
-260 6 -14 -55 10 -83 96 -118 48 -19 66 -53 49 -95 -18 -43 -45 -63 -156
-121 -55 -28 -115 -63 -134 -78 l-34 -26 -16 25 c-34 55 -138 143 -211 178
-72 35 -79 36 -185 36 -103 0 -114 -2 -178 -32 -72 -34 -169 -118 -219 -191
-61 -88 -79 -154 -88 -312 -9 -158 -15 -186 -53 -248 -79 -123 -240 -154 -340
-63 -72 65 -87 152 -43 247 26 56 56 89 383 430 166 172 228 231 281 262 101
59 175 84 272 89 73 4 99 1 186 -25 56 -16 114 -27 128 -25 30 6 76 56 76 82
0 67 -191 159 -479 230 -138 34 -198 42 -229 30z m-522 -667 c0 -5 -10 -17
-21 -28 -12 -10 -64 -65 -115 -122 -67 -73 -105 -126 -131 -180 -36 -73 -38
-82 -38 -177 0 -90 3 -106 30 -160 36 -75 115 -154 192 -192 53 -26 67 -28
168 -28 105 0 113 2 176 33 130 66 214 171 243 305 8 40 19 131 24 203 8 121
12 136 41 187 36 63 107 132 156 153 41 17 139 18 186 2 55 -18 115 -64 146
-112 l30 -45 -76 -78 c-42 -43 -89 -94 -105 -113 -43 -51 -187 -252 -194 -270
-15 -43 -101 -159 -168 -230 -93 -96 -145 -131 -260 -173 -82 -29 -99 -31
-219 -32 -139 0 -181 9 -295 63 -93 44 -194 160 -242 281 -19 47 -23 75 -23
177 l0 121 44 89 c76 153 214 269 376 315 72 21 75 21 75 11z m1764 -408 c26
-26 19 -69 -16 -110 -18 -21 -90 -75 -161 -121 -70 -45 -150 -100 -177 -122
-50 -40 -219 -213 -390 -401 -52 -58 -142 -155 -200 -215 -114 -121 -257 -275
-421 -454 -57 -63 -131 -143 -164 -177 l-60 -64 -55 66 c-30 37 -61 75 -68 84
-11 16 -4 25 65 80 158 126 611 565 870 842 268 287 500 484 678 578 65 34 77
36 99 14z m-10 -435 c30 -24 35 -71 11 -106 -8 -12 -48 -43 -88 -69 -76 -50
-223 -193 -304 -296 -26 -34 -67 -82 -90 -107 l-42 -46 -61 60 c-33 33 -60 63
-60 68 0 4 33 43 73 86 39 42 107 116 149 163 94 105 213 202 293 240 72 33
84 34 119 7z m-711 -705 c32 -34 57 -65 57 -69 0 -10 -183 -210 -195 -213 -5
-1 -39 26 -74 62 l-63 64 103 111 c57 61 106 110 110 109 3 -2 31 -31 62 -64z
m-344 -368 c35 -35 62 -68 60 -74 -2 -5 -44 -56 -94 -113 -49 -56 -106 -121
-126 -143 -19 -23 -62 -80 -94 -129 -81 -121 -80 -120 -159 -112 l-65 7 24 32
c28 37 39 64 66 165 27 99 57 153 127 226 31 33 86 93 121 133 35 39 67 72 70
72 4 0 35 -29 70 -64z"/>
<path d="M1284 3820 c-153 -87 -173 -313 -38 -416 49 -38 112 -43 147 -13 46
42 45 70 -7 128 -71 80 -62 129 29 155 88 26 112 90 56 147 -42 41 -115 41
-187 -1z"/>
<path d="M1330 1470 c-65 -22 -143 -99 -160 -158 -39 -142 40 -288 178 -328
119 -35 245 32 303 160 57 125 -24 289 -162 330 -67 20 -91 20 -159 -4z m139
-196 c24 -30 26 -43 10 -78 -25 -55 -109 -54 -130 1 -12 33 -3 80 19 93 33 19
79 12 101 -16z"/>
</g>
</svg>
